<svg width="25" height="20" viewBox="0 0 25 20" fill="none" xmlns="http://www.w3.org/2000/svg">
<path d="M25 9.16506C25.0001 9.96237 24.7859 10.743 24.3827 11.4143C23.9795 12.0856 23.4043 12.6194 22.7253 12.9523C22.4532 12.4428 22.1109 11.9798 21.7098 11.5788C22.3098 11.4044 22.8203 10.9828 23.1289 10.4068C23.4376 9.83083 23.5191 9.14761 23.3557 8.50746C23.1922 7.8673 22.7971 7.32265 22.2573 6.99332C21.7175 6.66398 21.0772 6.57695 20.4772 6.75135C20.3692 6.78258 20.2562 6.7887 20.1458 6.76929C20.0354 6.74989 19.9303 6.70541 19.8374 6.63887C19.7445 6.57233 19.6661 6.48528 19.6075 6.38362C19.5489 6.28195 19.5114 6.16803 19.4976 6.04958C19.3872 5.09497 19.021 4.19462 18.4431 3.45644C17.8651 2.71825 17.0999 2.17357 16.2392 1.88768C15.3785 1.60178 14.4587 1.58681 13.5902 1.84455C12.7217 2.10229 11.9413 2.6218 11.3425 3.34083C10.675 3.30814 10.0061 3.35736 9.34906 3.48752C9.94818 2.31036 10.8656 1.3529 11.9818 0.739793C13.098 0.126684 14.3613 -0.113681 15.6074 0.0499882C16.8534 0.213657 18.0244 0.773778 18.9679 1.65744C19.9114 2.5411 20.5838 3.70736 20.8974 5.00442C21.4261 4.97595 21.9547 5.06246 22.4511 5.25868C22.9475 5.4549 23.4014 5.75675 23.7851 6.14588C24.1688 6.53501 24.4743 7.00331 24.6832 7.52232C24.892 8.04133 24.9998 8.60023 25 9.16506Z" fill="#F8F8F8"/>
<path d="M10.9395 4.99768C12.669 4.99733 14.338 5.67721 15.6272 6.90732C16.9164 8.13743 17.7354 9.83144 17.9276 11.6654H17.9698C19.0056 11.6654 19.9991 12.1044 20.7315 12.886C21.464 13.6675 21.8755 14.7274 21.8755 15.8327C21.8755 16.9379 21.464 17.9979 20.7315 18.7794C19.9991 19.5609 19.0056 20 17.9698 20H4.69039C3.48018 20.001 2.31653 19.5024 1.44301 18.6087C0.569501 17.715 0.0538443 16.4954 0.00398332 15.2053C-0.0458777 13.9151 0.373923 12.6543 1.17551 11.6869C1.9771 10.7195 3.09833 10.1205 4.3045 10.0151C4.78729 8.54862 5.68493 7.27826 6.87346 6.37948C8.06199 5.48071 9.48275 4.99788 10.9395 4.99768ZM16.4075 12.4988C16.4084 11.0778 15.9232 9.70529 15.043 8.63887C14.1628 7.57245 12.9481 6.88545 11.6268 6.70683C10.3056 6.52821 8.96866 6.87024 7.86699 7.66873C6.76532 8.46721 5.97464 9.66725 5.64338 11.0436C5.59855 11.2299 5.49473 11.3939 5.34951 11.5078C5.2043 11.6218 5.02662 11.6786 4.84661 11.6687C4.43161 11.649 4.0171 11.7179 3.62732 11.8712C3.23755 12.0245 2.88034 12.2592 2.57658 12.5616C2.27283 12.8639 2.02864 13.2279 1.85828 13.6321C1.68793 14.0364 1.59483 14.4728 1.58445 14.9159C1.57406 15.359 1.64659 15.7999 1.79779 16.2127C1.94899 16.6255 2.17582 17.0021 2.46503 17.3203C2.75423 17.6384 3.1 17.8919 3.48211 18.0658C3.86421 18.2397 4.27498 18.3306 4.69039 18.3331H17.9698C18.302 18.3322 18.6304 18.256 18.9329 18.1095C19.2355 17.963 19.5054 17.7495 19.7247 17.4831C19.9441 17.2168 20.1078 16.9038 20.2051 16.5648C20.3024 16.2258 20.331 15.8686 20.289 15.5169C20.247 15.1652 20.1355 14.827 19.9617 14.5249C19.7879 14.2227 19.5558 13.9634 19.2809 13.7642C19.0061 13.565 18.6946 13.4305 18.3673 13.3695C18.04 13.3086 17.7042 13.3226 17.3824 13.4106C17.266 13.4424 17.1444 13.4452 17.0269 13.4187C16.9094 13.3921 16.7992 13.3371 16.7049 13.2577C16.6106 13.1784 16.5347 13.0769 16.4831 12.9612C16.4315 12.8455 16.4057 12.7186 16.4075 12.5905V12.4988Z" fill="#F8F8F8"/>
</svg>
