<svg width="25" height="25" viewBox="0 0 25 25" fill="none" xmlns="http://www.w3.org/2000/svg">
<path d="M16.4063 9.57033H8.59375C7.60955 9.57033 6.66566 9.96131 5.96972 10.6572C5.27379 11.3532 4.88281 12.2971 4.88281 13.2813V14.0625C4.88281 15.0467 5.27379 15.9906 5.96972 16.6866C6.66566 17.3825 7.60955 17.7735 8.59375 17.7735H16.4063C17.3905 17.7735 18.3343 17.3825 19.0303 16.6866C19.7262 15.9906 20.1172 15.0467 20.1172 14.0625V13.2813C20.1172 12.2971 19.7262 11.3532 19.0303 10.6572C18.3343 9.96131 17.3905 9.57033 16.4063 9.57033ZM18.9453 14.0625C18.9453 14.7359 18.6778 15.3817 18.2016 15.8579C17.7255 16.3341 17.0797 16.6016 16.4063 16.6016H8.59375C7.92035 16.6016 7.27453 16.3341 6.79836 15.8579C6.3222 15.3817 6.05469 14.7359 6.05469 14.0625V13.2813C6.05469 12.6079 6.3222 11.9621 6.79836 11.4859C7.27453 11.0097 7.92035 10.7422 8.59375 10.7422H16.4063C17.0797 10.7422 17.7255 11.0097 18.2016 11.4859C18.6778 11.9621 18.9453 12.6079 18.9453 13.2813V14.0625ZM20.3125 3.32033C19.6374 3.32111 18.9831 3.55466 18.4601 3.9816C17.9371 4.40855 17.5773 5.00277 17.4414 5.66408H7.5586C7.41402 4.95208 7.01004 4.31919 6.42508 3.88829C5.84013 3.45739 5.11593 3.25921 4.39307 3.33222C3.67021 3.40524 3.00027 3.74424 2.51331 4.28342C2.02634 4.8226 1.75708 5.52349 1.75781 6.25002V14.0625C1.75988 15.8749 2.48076 17.6124 3.7623 18.894C5.04384 20.1755 6.78138 20.8964 8.59375 20.8985H16.4063C18.2186 20.8964 19.9562 20.1755 21.2377 18.894C22.5192 17.6124 23.2401 15.8749 23.2422 14.0625V6.25002C23.2422 5.47302 22.9335 4.72784 22.3841 4.17842C21.8347 3.629 21.0895 3.32033 20.3125 3.32033ZM22.0703 14.0625C22.0685 15.5642 21.4712 17.0038 20.4093 18.0656C19.3475 19.1274 17.9079 19.7248 16.4063 19.7266H8.59375C7.0921 19.7248 5.65248 19.1274 4.59065 18.0656C3.52883 17.0038 2.9315 15.5642 2.92969 14.0625V6.25002C2.92969 5.78382 3.11489 5.33671 3.44454 5.00706C3.77419 4.67741 4.2213 4.49221 4.6875 4.49221C5.1537 4.49221 5.60081 4.67741 5.93046 5.00706C6.26012 5.33671 6.44531 5.78382 6.44531 6.25002C6.44531 6.40542 6.50705 6.55446 6.61693 6.66434C6.72682 6.77423 6.87585 6.83596 7.03125 6.83596H17.9688C18.1242 6.83596 18.2732 6.77423 18.3831 6.66434C18.493 6.55446 18.5547 6.40542 18.5547 6.25002C18.5547 5.78382 18.7399 5.33671 19.0695 5.00706C19.3992 4.67741 19.8463 4.49221 20.3125 4.49221C20.7787 4.49221 21.2258 4.67741 21.5555 5.00706C21.8851 5.33671 22.0703 5.78382 22.0703 6.25002V14.0625ZM9.96094 13.6719C9.96094 13.865 9.90366 14.0539 9.79636 14.2144C9.68905 14.375 9.53653 14.5002 9.35809 14.5741C9.17965 14.648 8.98329 14.6674 8.79386 14.6297C8.60442 14.592 8.43042 14.499 8.29384 14.3624C8.15727 14.2259 8.06426 14.0518 8.02658 13.8624C7.9889 13.673 8.00824 13.4766 8.08215 13.2982C8.15606 13.1197 8.28123 12.9672 8.44183 12.8599C8.60242 12.7526 8.79123 12.6953 8.98438 12.6953C9.24338 12.6953 9.49177 12.7982 9.67491 12.9814C9.85805 13.1645 9.96094 13.4129 9.96094 13.6719ZM16.9922 13.6719C16.9922 13.865 16.9349 14.0539 16.8276 14.2144C16.7203 14.375 16.5678 14.5002 16.3893 14.5741C16.2109 14.648 16.0145 14.6674 15.8251 14.6297C15.6357 14.592 15.4617 14.499 15.3251 14.3624C15.1885 14.2259 15.0955 14.0518 15.0578 13.8624C15.0201 13.673 15.0395 13.4766 15.1134 13.2982C15.1873 13.1197 15.3125 12.9672 15.4731 12.8599C15.6337 12.7526 15.8225 12.6953 16.0156 12.6953C16.2746 12.6953 16.523 12.7982 16.7062 12.9814C16.8893 13.1645 16.9922 13.4129 16.9922 13.6719Z" fill="#F8F8F8"/>
</svg>
