<svg width="25" height="20" viewBox="0 0 25 20" fill="none" xmlns="http://www.w3.org/2000/svg">
<path d="M18.6364 16.5116C18.6364 17.4368 18.2772 18.3241 17.6379 18.9783C16.9985 19.6325 16.1314 20 15.2273 20C13.7614 20 12.3455 19.0256 11.8602 17.6837C11.7975 17.5101 11.8048 17.3181 11.8805 17.15C11.9561 16.9818 12.094 16.8514 12.2636 16.7872C12.4333 16.7231 12.6209 16.7305 12.7853 16.8079C12.9496 16.8853 13.0771 17.0264 13.1398 17.2C13.4239 17.9872 14.3409 18.6047 15.2273 18.6047C15.7698 18.6047 16.29 18.3841 16.6736 17.9916C17.0572 17.5991 17.2727 17.0667 17.2727 16.5116C17.2727 15.9565 17.0572 15.4242 16.6736 15.0316C16.29 14.6391 15.7698 14.4186 15.2273 14.4186H2.5C2.31917 14.4186 2.14575 14.3451 2.01788 14.2143C1.89002 14.0834 1.81818 13.906 1.81818 13.7209C1.81818 13.5359 1.89002 13.3584 2.01788 13.2276C2.14575 13.0968 2.31917 13.0233 2.5 13.0233H15.2273C16.1314 13.0233 16.9985 13.3908 17.6379 14.045C18.2772 14.6992 18.6364 15.5865 18.6364 16.5116ZM15 3.48837C15 2.5632 14.6408 1.67592 14.0015 1.02172C13.3622 0.367524 12.4951 0 11.5909 0C10.125 0 8.70909 0.974418 8.22386 2.31628C8.16118 2.4899 8.16846 2.6819 8.24411 2.85003C8.31977 3.01816 8.45759 3.14865 8.62727 3.21279C8.79695 3.27694 8.98458 3.26948 9.14889 3.19207C9.3132 3.11466 9.44072 2.97362 9.50341 2.8C9.7875 2.01279 10.7045 1.39535 11.5909 1.39535C12.1334 1.39535 12.6537 1.61586 13.0373 2.00838C13.4209 2.4009 13.6364 2.93327 13.6364 3.48837C13.6364 4.04348 13.4209 4.57584 13.0373 4.96836C12.6537 5.36088 12.1334 5.5814 11.5909 5.5814H0.681818C0.500989 5.5814 0.327566 5.6549 0.1997 5.78574C0.0718341 5.91658 0 6.09404 0 6.27907C0 6.4641 0.0718341 6.64156 0.1997 6.7724C0.327566 6.90324 0.500989 6.97674 0.681818 6.97674H11.5909C12.4951 6.97674 13.3622 6.60922 14.0015 5.95502C14.6408 5.30083 15 4.41355 15 3.48837ZM21.5909 3.72093C20.125 3.72093 18.7091 4.69535 18.2239 6.03721C18.1928 6.12318 18.1786 6.21456 18.1821 6.30614C18.1856 6.39773 18.2067 6.48771 18.2441 6.57096C18.2816 6.65421 18.3347 6.72909 18.4004 6.79133C18.4662 6.85358 18.5433 6.90196 18.6273 6.93372C18.7113 6.96548 18.8006 6.98 18.8901 6.97644C18.9796 6.97289 19.0675 6.95133 19.1489 6.913C19.2302 6.87467 19.3034 6.82032 19.3643 6.75304C19.4251 6.68577 19.4724 6.6069 19.5034 6.52093C19.7875 5.73372 20.7045 5.11628 21.5909 5.11628C22.1334 5.11628 22.6537 5.33679 23.0373 5.72931C23.4209 6.12183 23.6364 6.6542 23.6364 7.2093C23.6364 7.76441 23.4209 8.29677 23.0373 8.68929C22.6537 9.08181 22.1334 9.30233 21.5909 9.30233H1.59091C1.41008 9.30233 1.23666 9.37583 1.10879 9.50667C0.980925 9.63751 0.909091 9.81497 0.909091 10C0.909091 10.185 0.980925 10.3625 1.10879 10.4933C1.23666 10.6242 1.41008 10.6977 1.59091 10.6977H21.5909C22.4951 10.6977 23.3622 10.3302 24.0015 9.67595C24.6408 9.02176 25 8.13448 25 7.2093C25 6.28413 24.6408 5.39685 24.0015 4.74265C23.3622 4.08845 22.4951 3.72093 21.5909 3.72093Z" fill="#F8F8F8"/>
</svg>
